/* XPM */
static char *ede7079d501d461eecb0549ab59c27901I9KqKK2IwAQBpgQ[] = {
/* columns rows colors chars-per-pixel */
"45 45 122 2 ",
"   c None",
".  c #AD560D",
"X  c #B7670F",
"o  c #B86D10",
"O  c #B07613",
"+  c #BC7310",
"@  c #DA6A07",
"#  c #C9770F",
"$  c #DC750A",
"%  c #DD7C0C",
"&  c #DF7B10",
"*  c #E17E06",
"=  c #E57409",
"-  c #EB750C",
";  c #E47A0A",
":  c #EA7B09",
">  c #E96C14",
",  c #ED7413",
"<  c #E17C16",
"1  c #ED7E16",
"2  c #F07C14",
"3  c #DE840E",
"4  c #DE8C0F",
"5  c #C18112",
"6  c #CB9418",
"7  c #DF9311",
"8  c #E3840B",
"9  c #EA830C",
"0  c #E48C0C",
"q  c #EC8C0C",
"w  c #F58D0B",
"e  c #E3940E",
"r  c #EC920E",
"t  c #E59C0D",
"y  c #ED9A0E",
"u  c #E18610",
"i  c #EF8113",
"p  c #E58A14",
"a  c #E1851B",
"s  c #E28C1E",
"d  c #EE8F1F",
"f  c #F18416",
"g  c #F38119",
"h  c #F28B1A",
"j  c #E19310",
"k  c #E49C13",
"l  c #E89910",
"z  c #E4921C",
"x  c #EA931A",
"c  c #EC9C1D",
"v  c #F39217",
"b  c #F69419",
"n  c #F8971A",
"m  c #F79C1A",
"M  c #FA9D1C",
"N  c #EBA40F",
"B  c #F2A70F",
"V  c #E5A312",
"C  c #EAA412",
"Z  c #E7AA13",
"A  c #EAAC13",
"S  c #E9A41A",
"D  c #EAAB1B",
"F  c #F4A71A",
"G  c #FCA51D",
"H  c #F1AC1A",
"J  c #E9B312",
"K  c #EBB917",
"L  c #EBB41A",
"P  c #EBBB1A",
"I  c #F3B011",
"U  c #F1BC14",
"Y  c #F7B51A",
"T  c #F5BD1A",
"R  c #EF8720",
"E  c #E58D22",
"W  c #EC8A20",
"Q  c #E69125",
"!  c #EE9323",
"~  c #E69923",
"^  c #EC9E21",
"/  c #F19423",
"(  c #F59A23",
")  c #FA9C21",
"_  c #EEA425",
"`  c #EAAB23",
"'  c #EFAC2E",
"]  c #F3A624",
"[  c #FEA421",
"{  c #FFA721",
"}  c #F9A023",
"|  c #FEAD24",
" . c #F2A128",
".. c #F6AC2E",
"X. c #FCAD2B",
"o. c #ECB024",
"O. c #EBB922",
"+. c #EDBD24",
"@. c #F1B727",
"#. c #F7B32E",
"$. c #F9B438",
"%. c #EBC119",
"&. c #EDC319",
"*. c #EEC719",
"=. c #EDC71A",
"-. c #EDCB1A",
";. c #EDCE1A",
":. c #F7C514",
">. c #F7CC17",
",. c #F1C31A",
"<. c #F9C81A",
"1. c #F8CE1A",
"2. c #F6D219",
"3. c #F3D41A",
"4. c #FBDB19",
"5. c #F9DA1A",
"6. c #EEC024",
"7. c #EEC327",
"8. c #EEC727",
"9. c #EDC929",
"0. c #F3D125",
"q. c #FADA23",
/* pixels */
"                                                                                          ",
"                                                                                          ",
"                                                                                          ",
"                                                                                          ",
"                                                                                          ",
"                                                                                          ",
"                                                                                          ",
"                                                                                          ",
"                                            q.                                            ",
"                                          5.0.>.                                          ",
"                                        4.3.8.&.:.                                        ",
"                                        2.;.8.J U                                         ",
"                                      1.&.;.7.A A I                                       ",
"                                    <.,.%.-.+.N N N B                                     ",
"                                    T P P &.O.t V t y                                     ",
"                                  T L P K 6.$.l e e 0 r                                   ",
"                                Y I D L L #.{ ] 0 8 8 9 q                                 ",
"                                H D D L @.| G { x 8 8 8 q                                 ",
"                              F S D S o.X.M ) G ) u 8 8 8 q                               ",
"                            h x S S S ..M M M M G  .8 8 8 ; -                             ",
"                            1 < p k ' ) n ) M m n n x * $ @ =                             ",
"                          / E E Q ~ ( n m n b b b m ( s a s ; :                           ",
"                          6 A k k V ^ 2 g f h v v h _ Z k 7 p #                           ",
"                            k l j j D R , f f f 1 ! L j 4 0 8                             ",
"                              C j 7 t D h 1 1 , > D Z e 4 q                               ",
"                              5 y 4 e V ^ , > > ^ K k 4 r +                               ",
"                                j e 4 t V W , ! L Z e e 3                                 ",
"                                  r 3 e t c x D J V 4 q                                   ",
"                                  + q 3 e t ` J Z j r +                                   ",
"                                    3 8 3 0 ` A j e 4                                     ",
"                                      9 % $ ~ k e r                                       ",
"                                      X 8 $ z 7 r +                                       ",
"                                        $ ; s l 4                                         ",
"                                          = u l                                           ",
"                                          . w O                                           ",
"                                            o                                             ",
"                                                                                          ",
"                                                                                          ",
"                                                                                          ",
"                                                                                          ",
"                                                                                          ",
"                                                                                          ",
"                                                                                          ",
"                                                                                          ",
"                                                                                          "
};
