/* XPM */
static char *de2d86a4337943fd80b544b5011e0773qHdT3IBnXHXuS748[] = {
/* columns rows colors chars-per-pixel */
"45 45 208 2 ",
"   c None",
".  c #0E0A0B",
"X  c #030001",
"o  c #130D0E",
"O  c #170C08",
"+  c #130E10",
"@  c #171212",
"#  c #121215",
"$  c #25140F",
"%  c #271611",
"&  c #2A1914",
"*  c #241D1C",
"=  c #31231F",
"-  c #39261E",
";  c #151F27",
":  c #1C252C",
">  c #1D2D3A",
",  c #182834",
"<  c #2C2220",
"1  c #282628",
"2  c #322522",
"3  c #362B28",
"4  c #3B342D",
"5  c #34302F",
"6  c #212D34",
"7  c #262E37",
"8  c #363233",
"9  c #3E3634",
"0  c #5D1D04",
"q  c #531A08",
"w  c #681F04",
"e  c #5C210B",
"r  c #472718",
"t  c #552917",
"y  c #58321B",
"u  c #622006",
"i  c #642409",
"p  c #6E2709",
"a  c #6E2B0C",
"s  c #6E2706",
"d  c #742506",
"f  c #702805",
"g  c #7F2A06",
"h  c #722B0A",
"j  c #7D2D0A",
"k  c #702709",
"l  c #77300D",
"z  c #7D340E",
"x  c #642B14",
"c  c #61331A",
"v  c #683417",
"b  c #7B3414",
"n  c #793A16",
"m  c #4A3225",
"M  c #5A3723",
"N  c #573724",
"B  c #452D21",
"V  c #653924",
"C  c #793C21",
"Z  c #7E4018",
"A  c #784627",
"S  c #734F3E",
"D  c #78513D",
"F  c #7C5541",
"G  c #775848",
"H  c #785E50",
"J  c #6E5E56",
"K  c #7A6559",
"L  c #7A6A61",
"P  c #7C6F68",
"I  c #812905",
"U  c #822E0A",
"Y  c #8B2D05",
"T  c #84350C",
"R  c #89330B",
"E  c #943B0D",
"W  c #9C390B",
"Q  c #9B3607",
"!  c #823912",
"~  c #993E14",
"^  c #A73A08",
"/  c #B43905",
"(  c #B83500",
")  c #8F400F",
"_  c #9B420E",
"`  c #93420F",
"'  c #8D4314",
"]  c #86411A",
"[  c #944413",
"{  c #9B4512",
"}  c #9D4812",
"|  c #954A1C",
" . c #9B4C1C",
".. c #94451A",
"X. c #A5410D",
"o. c #A9450E",
"O. c #BD4C0D",
"+. c #B94708",
"@. c #BF500F",
"#. c #A44713",
"$. c #A44C14",
"%. c #AB4B13",
"&. c #A64D1A",
"*. c #A04618",
"=. c #B24C11",
"-. c #BA4E10",
";. c #B14C18",
":. c #AC5117",
">. c #AC5318",
",. c #A75118",
"<. c #B65315",
"1. c #BB5414",
"2. c #BF5917",
"3. c #B35619",
"4. c #B95718",
"5. c #B5581A",
"6. c #BB5B1A",
"7. c #8B4424",
"8. c #8A4B2B",
"9. c #864B26",
"0. c #9B5A2C",
"q. c #97552B",
"w. c #854D32",
"e. c #855334",
"r. c #8C5839",
"t. c #915A34",
"y. c #9B5D35",
"u. c #984B23",
"i. c #A65727",
"p. c #B65D2B",
"a. c #AD6034",
"s. c #CC4404",
"d. c #C44D0B",
"f. c #CB4D09",
"g. c #C64B04",
"h. c #D44E04",
"j. c #D24F09",
"k. c #D84F03",
"l. c #C4510E",
"z. c #CC540C",
"x. c #CE5A0E",
"c. c #D45205",
"v. c #D4530A",
"b. c #D85609",
"n. c #D45B0C",
"m. c #DB5B0B",
"M. c #D85606",
"N. c #C35411",
"B. c #C55B16",
"V. c #CB5D15",
"C. c #CB551B",
"Z. c #C35D19",
"A. c #CA5711",
"S. c #D35D12",
"D. c #C3611C",
"F. c #CC6118",
"G. c #D56213",
"H. c #D86210",
"J. c #DC6818",
"K. c #CC5A21",
"L. c #865C43",
"P. c #80614E",
"I. c #976448",
"U. c #836554",
"Y. c #B46D45",
"T. c #806D61",
"R. c #82746A",
"E. c #867B73",
"W. c #8D7E73",
"Q. c #957966",
"!. c #8D837B",
"~. c #8D8076",
"^. c #93867D",
"/. c #92857B",
"(. c #958B83",
"). c #998F87",
"_. c #9D9087",
"`. c #9C9189",
"'. c #A3958A",
"]. c #A5998E",
"[. c #AB9B8E",
"{. c #A69A91",
"}. c #AD9D92",
"|. c #B09F92",
" X c #ADA096",
".X c #ACA39A",
"XX c #B3A295",
"oX c #B6A599",
"OX c #B8A79A",
"+X c #B7A89D",
"@X c #BCAA9D",
"#X c #BEADA0",
"$X c #C1AD9F",
"%X c #C1AFA1",
"&X c #C2B0A3",
"*X c #C1B0A3",
"=X c #C2B2A5",
"-X c #C5B3A4",
";X c #C6B4A6",
":X c #C4B2A4",
">X c #C9B5A7",
",X c #C6B6A9",
"<X c #C5B6AB",
"1X c #C8B7A9",
"2X c #C9B7A9",
"3X c #CBB9AC",
"4X c #D0BCAD",
"5X c #CFBFB2",
/* pixels */
"                                                                                          ",
"                                                5X5X                                      ",
"                            1X@X:X*XOX%X-X-X#X-X#XOXOX:X1X                                ",
"                      5X3X%X*XoXXX@XXX@X:XoXoX:X@XXX X:X@X@XOX@X:X:X                      ",
"                    =X3X%X#X%X#X[.@XXXoX-XOXoX>X@XXX@X*XOXXX}.-X@XoXOX#X                  ",
"                5X>XOX=XOX|.%X|.}.*X+X.X.X].). X.X X2X;X@X X*X-X@XoX[.|.@X+X              ",
"                >X=XOXOX%X|.%X>X X).Q.I.y.y.i.0.r.L.~.{.oX*X2X*X@XXXOX@XoX}.XX            ",
"            3X-XOX#X%X|.OX|.}.^.I.;.z.c.c.g.g.+.( ^ e.r.K (.>X-XoX%X%X@XoXXXoX=X          ",
"            1X%X@XXXXXXX].^.J p.s.c.n.x.z.l.l.+./ Q q.#.` w.L '.3X<X#X#X+XXXXX%X          ",
"          ,X*X%X@XoXXX[.R.x q C.g.g.n.x.z.d.g.+./ Q y.[ { _ T K }.#X#X#XoX}.oXOX%X<X      ",
"          1X*X$XOXXX}.R.V 0 q d.s.f.n.z.z.g.d.+./ W u...[ { T z G {.3XXX+X%X@X|.XX#X      ",
"          3X-X#XOXoX(.V 0 e e C.s.j.n.z.z.@.+.+./ W } [ { _ T g b H _.%X%X@XoXoXoX}.      ",
"          1X-X@X@X{.G w 0 0 x K.s.z.n.M.n.v.M.c.s.+.} ` ' { R j I b L #X-X*X#X@XXX}.XX    ",
"        1X-X#XOX|.R.x w e 0 i C.g.v.m.m.m.v.>.7.C ]  .5.,.{ R U j g F {.3X:X@XOXOXOX@X    ",
"      3X-X@XOXXX}.G k i e e l l.f.n.H.m.m.%.4 , , > 9 9.D.Z.E j U g n !.3X:X$X$X@XoX X    ",
"      5X-X#XoXXX`.D k i e l T g.s.n.n.m.S.v.f.{ j t 6 7 | F.<.E U I b K OX3X:X@XOX}.}.    ",
"      1X:X@XoXoX^.A s s l z z l.d.v.n.S.S.v.v.v.f.A.M > M Z.;.=.E I I H OX3X#XOX|.|.#X    ",
"      #X@XoXoXXX).A s l T z T l.d.n.x.m.S.v.A.z.d.S.A 6 N 1.-.=.;.R I F _.%XoX#X#X|.|.    ",
"    3X*X$XOXoXXX~.Z h Z z z T @.d.V.A.x.V.l.N.2.d.| 8 6 v B.-.;.;.^ g F }.3X%X#XoX}.|.    ",
"    3X*X*X@XOXOX~.3 1 5 5 5 8 9 9 9 9 m 9 9 9 m 9 7 , r } V.O.=.+.=.Y F `.#XOX#XOXoX+X    ",
"    3X;X@XOXXX[.~.< @ * * * < = < 3 2 3 < 2 2 < = r a ` 6.V.-.O.-.-.~ L #X>X%X$XoX}.{.    ",
"    :X#X@XOXOXOXE.& O O O O O % % % % % & & % & & r ' 5.6.F.O.-.-.d.u.E.3X%XOX|.|.oX:X    ",
"    3X;X*X$XoXoX'.4 X . . . . . + + + # + + + + + # : y 6.F.O.O.d.d.*.L [.oX$X%X%X@XoX    ",
"    3X:X$XOXXXXX].G s l i e s ` W ^ W ^ ^ W E Q W a * : n G.-.d.l.l.u.W.3X>X%X@XoX[.oX    ",
"    3X,X#XOXXX|.[.P.' ` z z z 1.N.G.N.V.V.N.l.1.N.J.V : y V.d.d.d.z.W L #X%X$XoXoX}.+X    ",
"    ,XoXoXXXXXXX`.F ) ` n m Z 1.N.V.-.N.V.-.O.O.V.G.M , N z.d.z.z.A.^ G _.#XoXoXoXoX      ",
"    3X*X@XOXXXXX'.G ` ' 4 , 6 | A.V.-.N.V.O.1.{ { y : 1 b S.f.f.f.f.~ R.%X>X%XOXXX[.oX    ",
"    3X*X$XOXXXXX^.e.} N = 6 : 4 >.V.1.1.V.[ < ; : ; 1 t } G.f.f.j.h.~ E.3X%X@XoXXX}.OX    ",
"    3X-X$XOXoXXX).e.' m T t h Z A G.<.@.N.%.n t t x j ` 5.G.v.j.v.j.~ L oX#X@X@XOXOX#X    ",
"    @XOXOXoXXXoX^.9.} N c l j B | V.<.2.B.=.l.O.N.B.>.>.5.H.j.j.c.k.8.(.1X#X#X@XXX[.XX    ",
"    ;X$X@XOXOXOX!.e.} ] m r - n V.B.1.1.B.=.=.=.Z.D.>.&.3.H.c.j.v.b.7.`.4X%X@XoXXX}.      ",
"    2X:X$XOXXXXX_.L.} [ T a p o.B.B.<.1.B.=.%.=.Z.Z.>.&.5.H.j.v.b.h...E.OXoXXXXX|.oX      ",
"    3X*X$XOXoX}._.r.} [ z l s ` Z.B.<.1.B.=.%.=.V.Z.>.&.3.G.c.j.b.h.8.(.>X$X@XoX|.OX      ",
"    #X@XOXoXoXoX^.q.} [ z l s E Z.B.<.<.2.%.%.=.Z.Z.,.$.3.H.c.v.m.j.7.`.3X%X@XXX|.oX      ",
"    ;X:X:X$X@X$X).r.} ' z h s T Z.Z.<.4.2.%.%.=.D.2.&.$.3.H.v.j.b.h.w.(.%X@XoX|.}.|.      ",
"    3X:X@XOX|.}.(.r.$.[ z h p U Z.Z.<.<.2.%.#.%.F.2.&.$.5.H.v.j.b.A.K oX>X%X$X@XoXOX      ",
"    3X-X#XOXXXXX(.t.$.[ z a h j 2.Z.3.4.4.%.%.%.Z.6.&.&.3.H.c.v.m.f.U.#X-X%X@XoXXX[.      ",
"    oXoXoXXX}.[.^.0.$.[ z h k k 3.Z.3.4.4.%.#.%.D.6.&.i.3.H.b.v.m.c.H }.%XOX@XOXXX X      ",
"  1X-X:X%X#X@X@X!.t.$.[ z h f d { Z.4.5.4.#.#.%.D.2.&.a.>.G.b.c.m.h.w.}.@XXXXXXXXXoX      ",
"  3X1X-X%X@X@X%X_.t.$...z f k k E Z.3.6.4.#.#.%.D.4.$.Y.3.H.b.c.m.h.7.(.%XXX|.}.[.[.      ",
"  3X1X-X@XOXXX[./.0.$.} z a f f U Z.6.6.5.#.#.%.D.5.$.Y.3.H.b.v.m.k.w.).%XOXoX}.[.[.      ",
"    1X-X@XOXXXXX!.0.,.[ z f h h d %.6.5.4.$.#.%.D.4.*.  3.H.b.v.b.M.D {.-XOXoXXX}.'.XX    ",
"    3X-X$X@XXXXX^.0.,.| z h s j d } 6.6.4.$.#.&.D.5.$.  p.G.m.v.m.b.U.oX>X@X@XoXXX[.oX    ",
"                                                                                          ",
"                                                                                          "
};
