/* XPM */
static char *ef75253e6a8c4802c33ae4c345165da5p2gKtANEJ2yr5AWc[] = {
/* columns rows colors chars-per-pixel */
"45 45 43 1 ",
"  c #382416",
". c #3D271A",
"X c #3E291B",
"o c #452917",
"O c #442C1D",
"+ c #492E1C",
"@ c #4B311F",
"# c #51341F",
"$ c #462F20",
"% c #463021",
"& c #4C3322",
"* c #4B3628",
"= c #4F392B",
"- c #523624",
"; c #543926",
": c #5A3B26",
"> c #503728",
", c #553B29",
"< c #5A3E2A",
"1 c #553F31",
"2 c #603F27",
"3 c #603E28",
"4 c #5D412D",
"5 c #544032",
"6 c #5D4332",
"7 c #5B4739",
"8 c #62432E",
"9 c #69462D",
"0 c #68482F",
"q c #634531",
"w c #6A4731",
"e c #664834",
"r c #6B4B34",
"t c #644B39",
"y c #6C4D39",
"u c #714D36",
"i c #714F38",
"p c #6E503B",
"a c #725037",
"s c #73533C",
"d c #7A563D",
"f c #7B593F",
"g c #745641",
/* pixels */
"+o28;#8:;q-&4:&-:4;4#94#445@;;44;84@O;8@@:;@#",
":2:4#:;#@4;;4::#@4qq248#;044;44446;#-4;;@48;@",
"::<:;---:@44@@0;4q44448#446#4944r4;44O--++##;",
":::-2:--;4@::444q0896#44#4444:486#;44@@-;;@92",
"22:-::#<:;::r444440a08444;4###84444;;*6;2@@q&",
"###::-;,484r0884445r0r6;440444484800;;#4-;-<;",
"##&;;:<4-4e40r-6r0;;;4ya40r448;806eu4eq--@-#;",
"---@-&6<4848r4;484445r444r0#4r4;64444y08;8;+#",
"##-#:>4;<,r8qy4444444e4s80r4554;4er4p64;;;&&;",
"#-:-*<;:48,4er&4q06e4r4-4yy60#84,4e,47&4&@8:4",
"++#;><4<84:4648r0646454444r644r44<re4,4;44484",
">-:*484*::rt4qq40r40444se;yy0fs4q6eq>,4:O48#9",
">---;&%<4>78uqe4r664048e4e04sre4qq6<444444;;6",
"&#;<4O,44rd8fdr4re44e8quet4844404qqq84e464:-4",
"@&:8<;%4:6e8>0e46;rr4q4rpr456s44re4544:;64-*&",
"#@:::<<,44e4:&;es4ryq4400r0404064re:46q4>*:&-",
"--99><<<r1<<y3<ge4rrqrqrur<qr,ir440445;4-O4&;",
"OO93><<<3e3t<qyg44rq4qrr:qrqwry<60rr4444*4:4-",
"++9:-->3y<<3qeeyqtf46e44q<ywqgs,6s4400;&;>+&@",
"+&;;><1<eqqywyeyu4u8qre4yq<q6y6q45#44q;;;%&+*",
"OO-;<q<<1<w>1g33rqrrpdp4yq-qqete60466+44--4%%",
"+&;+&<<,,<q<3i1144ur8aeq8qqy6yee64yt;;4#;4-4+",
"#-u<,>,-,,<ye113e:rt8req4eyt4r:6644r4;44;*q;&",
"+&:<$>3i<3<1i13e4etr44qrsryqrqrq4a644545*44OO",
"--&&q-<33y,<,33twq1>qwqurqwq6e64076444#;&e-%4",
";;<+<,<>tyw13<g3qyq<<ryiqeq<<r44y644;444,:&:;",
"###&$>q<33w1t1iiq<<gqrrrqeq<yyqy64#+44454-@&@",
"--&&3-<<1q313ri3>qr<qr<yir684e4,e444604;,;O-&",
"::<@><:<<w3313<<,,y3qqyyrr4qqeq-qu444,4;44XO:",
"tty-,-3q<r1<<<1<<<<1wqe<q4,q;6r4;554564:4&;%X",
"1t1&3<1<,3r<3e<,<e<1<si<qw,6<4,,;;4q454&&;;&&",
"7t7+,<$*,<3i<1>$13<3rsswqq6-tt><444;4&44+4&;4",
"gt7$>&$3->>-qwq$13131g31w<>yi>1<><>,&#&%;%&*;",
"111O,>;O&3,,<<q3y33y><i1<<<1,<<,,<q60;4O&&4;#",
"777@>$><*@<1q<3w3>g3<333i133ti33q,q=454;&X5OO",
"<q<+$O<<,,<<3w,113,33<>133y1131<q6,<;6,&&;+@O",
"rr<&O$O.$33<<<,><<><333:11e,><31,,,>-+q&*OO;*",
"gg1+---->><3><33:<;;,;*>3e3-<e,,>,>--*;-*OOO#",
"sg6o-3-&-&:-,3q<->@->->>1,,-,3<,<;<-,>&,*+##O",
"11t:,+&,$>,&><<<3>$*;*;>,>,$>>>r;&@-&:&+#OOO#",
">>3::$;O$@<&3&:>->3$@@><->$>>$>35-O%##4#O;OX8",
"117o@@:-$Oo@>&<>><>-<<3-*>@<*>$::O&;&&;OO#OX#",
"1=1@@;;#--:&@>;-3<>&&,&<3$><><-$&>&&5@OX+##X@",
"11<o.>@#@O3->>:;$:#->>;$$-->,>-:8@OX;X*OOOO&X",
"$$-+>#:@@Oo#>3$$$-$$>&-$$.-,&*&$:4+%O++@#+#5 "
};
