/* XPM */
static char *_6ec33a07a0b4a1e858da276c38b1f3dlkUWDK6rQsjMURKQ[] = {
/* columns rows colors chars-per-pixel */
"45 45 163 2 ",
"   c #362E36",
".  c #372F39",
"X  c #382F39",
"o  c #393037",
"O  c #373038",
"+  c #3B333B",
"@  c #40373E",
"#  c #41383E",
"$  c #3F3740",
"%  c #423740",
"&  c #433B43",
"*  c #483F46",
"=  c #473D48",
"-  c #483F49",
";  c #474046",
":  c #4A4147",
">  c #474048",
",  c #4C444B",
"<  c #4F484E",
"1  c #50474E",
"2  c #51494F",
"3  c #4F4751",
"4  c #4F4851",
"5  c #504752",
"6  c #544B53",
"7  c #594F55",
"8  c #564E58",
"9  c #594E59",
"0  c #575057",
"q  c #595156",
"w  c #5C545C",
"e  c #60575D",
"r  c #62595E",
"t  c #5E5760",
"y  c #5F5860",
"u  c #615761",
"i  c #645C63",
"p  c #685F66",
"a  c #665F68",
"s  c #6A5F68",
"d  c #676064",
"f  c #696166",
"g  c #6C646B",
"h  c #6F686F",
"j  c #70666D",
"k  c #72696E",
"l  c #6F6870",
"z  c #746B72",
"x  c #796F74",
"c  c #777077",
"v  c #7B7276",
"b  c #777078",
"n  c #7D747A",
"m  c #7F787C",
"M  c #81777B",
"N  c #837A7E",
"B  c #887E7F",
"V  c #867D82",
"C  c #887F82",
"Z  c #878084",
"A  c #8B8285",
"S  c #8D8589",
"D  c #8F898C",
"F  c #90878B",
"G  c #918B8F",
"H  c #938B8F",
"J  c #928B8F",
"K  c #91898D",
"L  c #928C8F",
"P  c #948C8D",
"I  c #968D8F",
"U  c #978E8F",
"Y  c #928A8D",
"T  c #938B90",
"R  c #938C90",
"E  c #938D92",
"W  c #948C90",
"Q  c #958D91",
"!  c #958D92",
"~  c #948D92",
"^  c #958F92",
"/  c #968F92",
"(  c #968F93",
")  c #978F92",
"_  c #968F94",
"`  c #978F94",
"'  c #978F95",
"]  c #958D91",
"[  c #988F93",
"{  c #979093",
"}  c #979194",
"|  c #969094",
" . c #989193",
".. c #999293",
"X. c #999195",
"o. c #9B9395",
"O. c #9A9395",
"+. c #999197",
"@. c #999297",
"#. c #999396",
"$. c #9A9396",
"%. c #9B9297",
"&. c #9A9397",
"*. c #9B9397",
"=. c #9B9495",
"-. c #9C9496",
";. c #9C9597",
":. c #9A9195",
">. c #9B9498",
",. c #9B9499",
"<. c #9C9498",
"1. c #9C9499",
"2. c #9D9499",
"3. c #9C9599",
"4. c #9D9599",
"5. c #9D9798",
"6. c #9C9699",
"7. c #9E9699",
"8. c #9E9799",
"9. c #9D949A",
"0. c #9F979A",
"q. c #9E969B",
"w. c #9F979B",
"e. c #9F979C",
"r. c #9D9599",
"t. c #9F989B",
"y. c #9D989C",
"u. c #9F989C",
"i. c #9F989C",
"p. c #A0979B",
"a. c #A1999A",
"s. c #A0999B",
"d. c #A1999B",
"f. c #A0999D",
"g. c #A19A9C",
"h. c #A19A9D",
"j. c #A29A9D",
"k. c #A29B9D",
"l. c #A19A9E",
"z. c #A19B9E",
"x. c #A29A9E",
"c. c #A29B9F",
"v. c #A29C9F",
"b. c #A29A9E",
"n. c #A49DA0",
"m. c #A49FA1",
"M. c #A49EA3",
"N. c #A49FA3",
"B. c #A59FA4",
"V. c #A69FA4",
"C. c #A49DA1",
"Z. c #A6A0A4",
"A. c #A7A2A5",
"S. c #A6A0A3",
"D. c #A8A2A5",
"F. c #A8A3A6",
"G. c #A9A3A6",
"H. c #A9A2A6",
"J. c #AAA4A8",
"K. c #ADA7A9",
"L. c #AFA9AC",
"P. c #B0AAAD",
"I. c #B5AFB1",
/* pixels */
"N Z / | I L $.v.D.D.H.F.A.V.N.n.| y.h , ! &.&.$.h.h.C.V.&.%.y.+.P q B ^ S D | A A C g 2 C ",
"&.$.5.a.t.a.;...7.7.%.q.%.7.%.%.%.,.d < C y.h.7.7.t.h.V.7.7.y.N.v # m K.5.g.i.,.y.$.d q S ",
"K S A P F F D K / o.9.9.q.! E / | | i , S %.,.%./ / P E L L K | M # f a.L D } | / ;.r 1 C ",
"S Z B N m k c v Z S C M V S E ! / | w , Z q.7.D b n x x n A Z D M : j a.A m Z |  .;.r 2 A ",
"B v v v N z k k x N x z v n V E E / e , B  .| A f c b b Z D C S M * k k.D x V ! &./ r q S ",
"v g k c N m c n n v x z v b n S S P e , A t.P m c c Z Z S E Z S M , f a.S z A ! L / r q B ",
"N c k c x x m n b l j s z x b m Z I w , A 7.D b b m m Z Z S S D x : g I S v A / S K r q F ",
"F F S D A N B C V V V n V V V S K ;.w , K | D A D S S D E | | 6.v + k ;.I A S / K &.g 1 A ",
"k v c k h p u u y i t t 8 8 t t y p w 4 Z c m m m m n z g f y y l , 6 w i a y s z x k 4 x ",
"# + + +   X o o + % $ . $ . $ . . O + $ + + + + + O O O O O $ $ . .       . o X O O o + % ",
"d g h k b n b V g $ a b m V C A S A Z V b c z h l g l g d g , > z g g s f l l f p i p t w ",
"$.a.m.J.K.L.L.C.h = C y.q.q.9.7.y.q.s.k.m.D.G.S.Z.v.i.m.Z.D 6 8 9.I.P.L.K.K.K.K.v.7.y.7.7.",
"| | ' +.' ' ' F w & m / / / ' &.%./ / ! P P P / D D D A y.Z 4 = T C.' 9.J ' 9.9.,.&.! &.! ",
"/ | F S ! 9.9.&.r : m K P &. .o.&.&.[ I F F P $./ D Z V G S 0 $ T C.9.C b V S C A N F ' / ",
"K D V V F +.9.! r & n L / [ P I &./ &. .A D P P P A B V A m 0 + K C.' V z n V V v x C ! P ",
"K N z z x C %.! d & N I C A I [ &.I P [ ....P P F A B B A v q & ' V.C V V C S V x b V P D ",
"V j s u s b C D f % b A s l n V Z A A F E / P S S C N N S N 6 # &.h.D M V A F S x n A E S ",
"V M M z z v V E z & v V s j l l p g M C N m D / E A A S K n 6 : ' q.P E F F &.&.C A E ! E ",
"u i s 9 9 w w u f > 9 w 8 5 - , 5 8 6 9 8 6 w u y w y i r q 2 6 z w 0 i a u w 9 5 3 8 9 w ",
"@ X X X X X X . % + o X X + % & $ X + + + + + o X $ . O O + + + + X + o X X + + $ & % + + ",
"j k z z z z z z l l z l l z l + s T C S S E u % b b b v c c b b v b b z g p u u y $ w g f ",
"F +.n.C.V.V.n.C.S.n.C.y.&.P k @ s V.I.L.L.y., 6 / 7.c.V.F.F.G.J.G.V.D.C.q.| &./ x + n v.,.",
"C ! J ! +.+.' ' ' ! / / P F f # 9 A P m V V - 5 A q.p.s.s.;.5.5.h.p.7.,.| | s.K w = x v.&.",
"V C J ' F S A S / ! E %.I U k # 6 D C h b V 5 , V 9.j.Y N B A Y / I E D D A Z K f * l v.7.",
"C K A A M k j k M S F [ p.[ k # 6 P S k M N 1 1 M P 9.M M N C F I I A M A B M A g & j ;.p.",
"F V C C V V M z x A I U [ P p + 2 Y S v M B , , n P ! M N F [ [ A N B x v v M A f & v [  .",
"S V C S B C B M M B S S Y [ r # 1 P S v C A 1 1 M ' P N M S I I I M C v b N C A f & m S B ",
"C S C C C x x V N M A C S F j # 5 P [ C S Z , 1 V 9.P C M N Y F  .S N M Z A Z Z r > M K B ",
"B B M M M k x M V b N V S I x % 5 S K A A C 2 1 C [ I A C B C B C C C N N Z A Z d : n S B ",
"S F S C M B N N S C F / I 5.n % 8 P o.A C P 6 6 M p.V.c.j.j.p.o.&.%.%.&.I ;.I K f & n Y B ",
"k k p r r u e 7 a g g p r k j & w M A S B N 2 e F C v i i g s k z z z z k x v b z % N S n ",
"# # @ @ X X @ X $ + X X X + % o & % + * & # + - * @ X X + + X X   . . o o   O O > O , + + ",
"# - M z z z l l z l l h g l g g u & 0 y w t t t w u u i , , t y y y w t u u u i a s a u 8 ",
"7 e C.I.L.P.K.A.B.F.D.D.H.H.H.V.h * V n.l.n.C.V.V.V.n.D 1 f y.%.7.y.N.n.C.C.C.n.n.q.q.9.&.",
"w i D C.C.n.h.p.,.%.! [ P / ! z w * k P E E E J S S A l 1 q A c.7.q.! &.%.9.+.+.E ! F F C ",
"w i / C.p.! ! ' ! ! &./ &.&.! z u * f ! / E S C V v C x , e C p.' ' ' &.[ ! T +.S V M F C ",
"5 i D n.E M S C A S S P ! p.[ k e * i / +.C v x v x C x * i M &.o.+.+.+.[ F C C C V V D Z ",
"3 a S n.D n C V B N B A F [ o.v e & i P J S C N C C N x , r M o.' ' [ Y V V C V C V V S C ",
"3 p A &.C n x v V C B M A  .o.M e & s F S V x M C F S x * e A P ! ' ' M x M M M V V C G C ",
", u A E n s s j x N A C B P Y M a & s J F N M v C T C M , i C P Y P C M x M x x n V V D S ",
"- i K C k i s i f x N C N B C M e & j K A N C C B A B v 2 u A &.P A M x x v x x n b M B V ",
"5 s C C M j k s g x M M M M B M e , x $.B N B A A A A v , u S 7.S B N M x M M k k M M N M ",
"8 s K C C V M M N C F A C F B B r * v c.[ A A A S A A N : i / p.F F ! A B Y A M M C M N M ",
"8 s s 9 9 5 6 9 9 9 9 9 e e 6 7 q - p 7 9 q e e e 7 : f , e p 5 9 e e q 7 7 e 6 9 9 r p g ",
"= % $ + @ % % & % @ % % @ @ @ X @ o o X + # # o o o @ # % $ $ + @ # + # @ @ & # @ # @ X @ "
};
