/* XPM */
static char *_e7f26bd1bc44382c9f3fc7857bf59f3ANBJgLOikR4WFH7c[] = {
/* columns rows colors chars-per-pixel */
"45 45 219 2 ",
"   c None",
".  c #190D00",
"X  c #1E1100",
"o  c #0F0112",
"O  c #270600",
"+  c #231501",
"@  c #2B1C06",
"#  c #2D1E0A",
"$  c #291704",
"%  c #341606",
"&  c #2E0E0F",
"*  c #34220C",
"=  c #3C240E",
"-  c #332412",
";  c #3B2B1C",
":  c #3A2814",
">  c #2E2012",
",  c #0B0024",
"<  c #0F0028",
"1  c #15032D",
"2  c #1A072A",
"3  c #190632",
"4  c #1C0836",
"5  c #1E093A",
"6  c #1A0637",
"7  c #210C3E",
"8  c #29143A",
"9  c #321E3F",
"0  c #2E1A25",
"q  c #382830",
"w  c #470704",
"e  c #5B1711",
"r  c #770E00",
"t  c #7D1000",
"y  c #422D15",
"u  c #412C17",
"i  c #4A331A",
"p  c #46331C",
"a  c #533E1F",
"s  c #4E3A25",
"d  c #4A3825",
"f  c #543C22",
"g  c #533F2A",
"h  c #4C3930",
"j  c #723631",
"k  c #5C4425",
"l  c #54412C",
"z  c #594229",
"x  c #5C4732",
"c  c #4A4235",
"v  c #66492B",
"b  c #674C38",
"n  c #66513C",
"m  c #6C5239",
"M  c #76563A",
"N  c #704F36",
"B  c #1D0642",
"V  c #220C43",
"C  c #260E4A",
"Z  c #2C124C",
"A  c #291146",
"S  c #2C1352",
"D  c #2F135D",
"F  c #351954",
"G  c #3A1D5C",
"H  c #331958",
"J  c #2E144F",
"K  c #3B2642",
"L  c #3C1E6A",
"P  c #391C63",
"I  c #3D1D75",
"U  c #3E2261",
"Y  c #3F206E",
"T  c #422D44",
"R  c #4B3549",
"E  c #543E4B",
"W  c #422465",
"Q  c #45266A",
"!  c #46286B",
"~  c #4A296D",
"^  c #482874",
"/  c #4B2A7C",
"(  c #462577",
")  c #552E78",
"_  c #59434C",
"`  c #5E4751",
"'  c #56534A",
"]  c #785B44",
"[  c #624B53",
"{  c #6B5556",
"}  c #6F5043",
"|  c #7A624B",
" . c #7C6551",
".. c #6E655D",
"X. c #76756F",
"o. c #871D04",
"O. c #9A2609",
"+. c #B32700",
"@. c #8D4436",
"#. c #BB4624",
"$. c #84613F",
"%. c #C65C3D",
"&. c #835F42",
"*. c #8A6645",
"=. c #866649",
"-. c #916A4A",
";. c #996F4F",
":. c #846A53",
">. c #846C59",
",. c #8E735B",
"<. c #957458",
"1. c #986D50",
"2. c #A47B55",
"3. c #A67A58",
"4. c #BC6349",
"5. c #8D7365",
"6. c #977C66",
"7. c #806761",
"8. c #BB6D66",
"9. c #C66549",
"0. c #C66B51",
"q. c #C96D6A",
"w. c #C76B68",
"e. c #CC726D",
"r. c #D1796C",
"t. c #CC7872",
"y. c #D17470",
"u. c #AE825C",
"i. c #B3885E",
"p. c #9D816B",
"a. c #9E8371",
"s. c #84837E",
"d. c #A6876C",
"f. c #BD9262",
"g. c #A28673",
"h. c #AB8E78",
"j. c #A98C75",
"k. c #AE917D",
"l. c #B3947A",
"z. c #BA987A",
"x. c #B18D71",
"c. c #CB9E6C",
"v. c #C49966",
"b. c #CB897A",
"n. c #D4847D",
"m. c #CDA06D",
"M. c #D4A671",
"N. c #4D2A83",
"B. c #4E2A89",
"V. c #532E8D",
"C. c #502C87",
"Z. c #5B3286",
"A. c #542E91",
"S. c #573094",
"D. c #593296",
"F. c #5B3499",
"G. c #64388A",
"H. c #673A98",
"J. c #693CA3",
"K. c #74429C",
"L. c #7544AC",
"P. c #7946AB",
"I. c #7C48AC",
"U. c #6E40A6",
"Y. c #834CAF",
"T. c #834DB5",
"R. c #8951BB",
"E. c #8F928E",
"W. c #BC9C83",
"Q. c #B69883",
"!. c #B98D81",
"~. c #BFA083",
"^. c #99A2A4",
"/. c #B3B7B7",
"(. c #C99885",
"). c #DB9083",
"_. c #C4A185",
"`. c #C9A68B",
"'. c #D1AC8F",
"]. c #CCAB91",
"[. c #D2AE93",
"{. c #DBB59A",
"}. c #DEB99A",
"|. c #D7B296",
" X c #E4A396",
".X c #E3BC9C",
"XX c #EEB39C",
"oX c #DCBCB6",
"OX c #D7ABA1",
"+X c #E9BCA3",
"@X c #EAB3A9",
"#X c #E09487",
"$X c #BEC1BF",
"%X c #DCC1BD",
"&X c #EBC3A4",
"*X c #EDC7AB",
"=X c #F1C6A7",
"-X c #F2C7A9",
";X c #F5CBAC",
":X c #F9CEAE",
">X c #F6CEB3",
",X c #FACFB0",
"<X c #F5C2B2",
"1X c #FDD4B4",
"2X c #FBD4BB",
"3X c #FFDABA",
"4X c #FBD5B5",
"5X c #EECAB7",
"6X c #FFE0BF",
"7X c #B8C1C4",
"8X c #C5CACA",
"9X c #D5D4D3",
"0X c #FAD5C4",
"qX c #FBD9CA",
"wX c #FBD9C3",
"eX c #F1D5CE",
"rX c #FFE1CC",
"tX c #DDDFE1",
"yX c #F4F2F1",
/* pixels */
"                                          1 1 <                                           ",
"                                      < F G.H.) A                                         ",
"                                    1 ! T.J.F.L.T.F                                       ",
"                                  < ~ R.C.B.V.B.H.R.J                                     ",
"                                  F R.V.V.V.V.A.N.H.Y.7                                   ",
"                                7 Y.F.V.V.V.V.V.A.B.L.H.1                                 ",
"          3 1                 3 K.J.B.V.V.V.V.V.V.V.B.T.) ,                 3             ",
"          Z W ,           1 J J.L.B.V.V.V.V.V.V.V.V.V.B.T.G.7 ,           3 P 5           ",
"          H R.) Z A F G ! G.Y.J.N.V.V.V.A.V.V.A.V.V.V.V.B.L.I.Z.W G F A J G.J.V           ",
"        3 L S.L.P.P.P.I.L.J.V.B.A.V.V.V.V.V.V.V.V.V.V.V.A.B.S.J.L.P.I.P.I.U.A.H           ",
"        6 ( A.B.V.V.C.B.B.B.V.V.V.A.V.V.V.V.V.V.V.A.V.V.V.V.V.B.B.B.B.V.V.B.S.G 2         ",
"        4 N.A.V.V.V.A.V.V.V.V.V.V.V.V.A.V.V.A.V.V.V.V.V.V.V.V.V.V.S.V.V.V.V.S.Y 1         ",
"        5 N.A.V.V.V.V.V.V.V.V.V.V.V.V.V.V.A.V.A.V.A.V.V.A.V.V.V.V.V.V.V.S.V.S.L 1         ",
"        3 ( A.V.V.V.V.V.V.V.V.V.V.V.V.A.V.V.A.V.V.V.V.V.V.V.V.V.V.V.V.V.B.B.D.P           ",
"  5 7 4 4 N.A.V.V.V.V.A./ ! / V.A.V.V.V.V.V.V.V.V.V.V.V.A.C.^ ! N.S.V.V.V.V.S.P 2 5 7 5   ",
"  7 N./ Z.H.V.V.V.V.A./ P S U ~ / C.A.A.V.V.V.A.V.V.V.C.^ ! G S Q N.V.V.V.V.A.H.Z.N.Y 3   ",
"  7 B.S.S.B.B.^ V.A.N.G 7 K V S U ! ^ / C.C.C.C.B./ ^ Q G C A 9 V W V.A.N.^ V.V.S.D.( 3   ",
"  7 N.V.V.S.N.H ! / P 6 { _.5.T 7 Z G W Q ! ! ! W W H C 8 E j.z.R B ! / U G V.V.B.S.Y 1   ",
"  4 / V.B.S.L < S U 5 { |.:X=X].5.E 8 A C S S S C V 9 [ g.|.;X;X~.R C U V 4 N.S.V.D.P 1   ",
"  3 Y S.V.S.D _ R 6 _ `.;X:X,X,X=X{.l...[ E R _ { 5.l.}.=X4X,X;X-Xk.K 5 ` K I S.V.D.S     ",
"    Z / / V.S { W.a.W.1XwX:X=X,X3X1X;X;X&X}.}..X&X;X:X1X3X;X&X4X3X,Xl.g.~.T L V.N.^ 7     ",
"    7 U Q ~ S E }.,X3X`.} g l g ] }.1X;X:X,X,X4X:X;X1X'.M l l g M {.3X,X`.A G ! W F 4     ",
"    3 7 C S B _ |.3X,.; E.8X9X$X5.- Q.3X-X;X;X;X;X3X6.; E.8X8X8Xs.# d.3X~.9 B S C 4       ",
"    7 0 _ ` { h.4Xd.; tXoX9.%.).tX/.$ _.,X;X;X-X>Xd.: tXoX9.%.(.tX7X$ ~.;X6.[ { h 8 V     ",
"  Z ( ; .X&X&X;X5X: 7XOX+.t @.yX%.9XE.y !.k.h.h.j.* 8X[.+.r &.yX%.%XE.p 4X;X.X-Xz.0 N.8   ",
"1 G U k 1X:X:X1Xc.d tX#.r w e } O.4.E.+ 5.6.6.g.:.- /.#.o.w e j O.0./.- |.1X:X1X.X- B.Z   ",
"  V 8 m 3X-X-X1Xx.h 9X#.%Xj O O % y d x g.h.j.h.6.x u = % O w w o.%./.; `.1X;X;X;Xd J 7   ",
"  V 2 | 1X>X>X3X'.* 8Xb.!.; s <.b.|.-X4X>X>X>X>X>X,X*X|.z.:.i & o.(.^.: .X1X>X>X4Xz 3     ",
"    o | wX0XqX0X0Xs ..{ % l.4X3X3XwXwXwXqXqXqXqXqXqX0X2X2X3X,Xj.: ..' n rXeXqX0X1Xz o     ",
"      } rXwX@XOX X8.+ n 4X1X;X>XqXqXqXqXqXqXqXqXqXqXqXqX0X+X:X1X&Xz % t.@X@X0XqX2Xs       ",
"      g qXeX X).e.y.b.4X:X-X;X>X2X0X2X2X2X>X2X2X2X2X2X0X2X:X;X=X1X+X8.y.q.n.@XrX*X;       ",
"      : |.@Xq.e.e.w.).,X;X:X;X;X-X;X;X;X;X;X-X-X:X-X;X-X;X;X;X:X:X@Xy.y.y.w.n.qXQ.@       ",
"      + 5.&X).q.q.t.XX,X:X;X;X;X1X;X;X;X;X,X;X:X;X;X;X4X:X;X:X;X:X;Xn.q.e.w.'.;X] X       ",
"        h W.-XXX X=X,X;X:X:X:X4X,..X1X;X;X-X-X-X;X;X6Xp._.3X;X;X;X:X;X X).XX=XQ.d         ",
"        + | Q.&X1X;X-X;X;X;X,X'.. :.&X1X3X3X3X3X1X;X].* x 4X;X:X;X;X;X:X1X&XQ.n .         ",
"          @  .k.|.1X3X1X:X*X3X<.,.] d x ]  .:.| n l s 6.=..X:X;X:X4X3X;X].h.} +           ",
"            $ x n n ,._.:X1X;X,X1X3X&X_.d.6.<.6.l.|.,X3X1X,X;X4X;Xz.:.n n l X             ",
"            @ i v v k y s _.1X:X;X;X,X1X1X3X3X3X1X,X;X-X;X,X4Xj.p y k v v y $             ",
"          * 2.m.c.c.m.v.N X ,.|..X:X,X,X,X:X;X>X,X,X,X,X&X{.| X *.m.m.v.v.m.*.$           ",
"      + i 2.u.2.f.f.i.2.i.$.@ >.k.Q.`.[.|.{.}.}.|.[.`.W.Q.} * ;.i.<.f.v.i.2.i.-.=         ",
"      X -.M.i.] ;.2.&.;.c.c.f # b  .5.p.p.a.j.a.a.p.5. .n @ M M.f.&.-.2.-.-.v.M.v .       ",
"      X N u.-.# ] 1.v i 3.2.i     + * ; p l s s d u * $   . v u.;.* N 1.N y ;.2.f         ",
"      X a *.k X k *.y $ M &.=                               y *.v + a *.f X N *.y         ",
"        * k * X * k @ + i a $                               @ k : + @ k * X : k @         ",
"          +       +     + +                                   $ +     +     + +           "
};
